<svg xmlns="http://www.w3.org/2000/svg" id="canvas" viewBox="214.227 342.880 920.349 94.116"><path d="M 229.63,349.19 C 229.27 349.68, 229.10 350.28, 228.70 351.75 C 228.31 353.21, 228.09 354.27, 227.66 356.51 C 227.23 358.75, 227.00 360.17, 226.57 362.96 C 226.14 365.75, 226.00 367.33, 225.50 370.47 C 224.99 373.61, 224.66 375.39, 224.03 378.65 C 223.41 381.91, 223.04 383.53, 222.37 386.77 C 221.71 390.02, 221.35 391.78, 220.72 394.88 C 220.09 397.98, 219.75 399.58, 219.22 402.27 C 218.69 404.95, 218.47 406.25, 218.09 408.32 C 217.71 410.39, 217.46 411.31, 217.31 412.62 C 217.17 413.92, 217.22 414.28, 217.37 414.83 C 217.52 415.39, 217.82 415.35, 218.05 415.38 C 218.27 415.41, 218.51 415.10, 218.50 414.97 C 218.50 414.84, 218.14 414.68, 218.05 414.71 C 217.95 414.75, 217.97 415.11, 218.04 415.14 C 218.11 415.17, 218.19 415.32, 218.38 414.88 C 218.57 414.44, 218.67 414.17, 219.01 412.94 C 219.35 411.71, 219.62 410.78, 220.09 408.73 C 220.56 406.68, 220.84 405.38, 221.36 402.68 C 221.88 399.99, 222.10 398.37, 222.69 395.27 C 223.27 392.16, 223.61 390.40, 224.27 387.16 C 224.92 383.91, 225.30 382.30, 225.97 379.04 C 226.65 375.78, 227.00 373.98, 227.63 370.86 C 228.26 367.73, 228.59 366.18, 229.10 363.39 C 229.62 360.61, 229.90 359.20, 230.21 356.93 C 230.53 354.66, 230.61 353.57, 230.67 352.04 C 230.72 350.52, 230.69 349.88, 230.48 349.31 C 230.27 348.74, 229.98 348.70, 229.63 349.19" style="stroke: currentColor; fill: currentColor;"/><path d="M 251.20,358.73 C 251.08 358.86, 251.22 358.58, 251.05 359.07 C 250.88 359.57, 250.80 359.75, 250.35 361.19 C 249.90 362.63, 249.52 363.69, 248.80 366.28 C 248.09 368.88, 247.76 370.75, 246.77 374.17 C 245.78 377.60, 245.10 379.73, 243.85 383.42 C 242.61 387.10, 241.84 389.03, 240.55 392.62 C 239.27 396.20, 238.57 398.16, 237.43 401.34 C 236.29 404.52, 235.69 406.14, 234.83 408.52 C 233.97 410.89, 233.63 411.80, 233.15 413.21 C 232.67 414.61, 232.60 414.96, 232.44 415.55 C 232.27 416.13, 232.34 416.05, 232.34 416.12 C 232.34 416.20, 232.47 415.93, 232.43 415.91 C 232.38 415.88, 232.12 415.90, 232.12 416.01 C 232.12 416.11, 232.17 416.44, 232.42 416.45 C 232.67 416.46, 232.92 416.59, 233.38 416.07 C 233.83 415.55, 234.00 415.21, 234.67 413.84 C 235.35 412.47, 235.84 411.60, 236.74 409.23 C 237.65 406.85, 238.10 405.16, 239.19 401.96 C 240.28 398.75, 240.91 396.79, 242.18 393.20 C 243.46 389.61, 244.24 387.69, 245.57 384.02 C 246.90 380.35, 247.65 378.22, 248.84 374.84 C 250.04 371.45, 250.75 369.70, 251.54 367.07 C 252.33 364.45, 252.62 363.32, 252.80 361.70 C 252.99 360.08, 252.70 359.65, 252.46 358.99 C 252.22 358.33, 251.88 358.46, 251.62 358.41 C 251.37 358.36, 251.31 358.60, 251.20 358.73" style="stroke: currentColor; fill: currentColor;"/><path d="M 227.97,393.50 C 228.34 393.71, 228.55 393.83, 229.75 393.81 C 230.95 393.78, 231.90 393.84, 233.96 393.37 C 236.03 392.90, 237.38 392.39, 240.08 391.46 C 242.78 390.53, 244.34 389.92, 247.46 388.73 C 250.58 387.54, 252.38 386.79, 255.68 385.51 C 258.99 384.23, 260.73 383.53, 263.98 382.33 C 267.23 381.14, 268.98 380.53, 271.91 379.54 C 274.84 378.55, 276.36 378.09, 278.65 377.38 C 280.93 376.66, 281.93 376.42, 283.35 375.97 C 284.77 375.53, 285.35 375.36, 285.75 375.14 C 286.14 374.92, 285.93 374.71, 285.34 374.87 C 284.75 375.03, 284.13 375.20, 282.79 375.94 C 281.46 376.69, 280.55 377.20, 278.67 378.57 C 276.79 379.95, 275.63 380.84, 273.40 382.82 C 271.17 384.79, 269.82 386.11, 267.52 388.46 C 265.23 390.80, 263.87 392.24, 261.93 394.56 C 260.00 396.87, 259.07 398.06, 257.85 400.03 C 256.63 402.00, 256.12 402.99, 255.82 404.42 C 255.51 405.85, 255.67 406.50, 256.31 407.18 C 256.94 407.86, 257.60 408.01, 259.00 407.81 C 260.40 407.61, 261.41 407.25, 263.31 406.16 C 265.22 405.08, 266.39 404.22, 268.51 402.36 C 270.63 400.51, 271.74 399.17, 273.92 396.90 C 276.10 394.64, 277.41 393.26, 279.43 391.02 C 281.46 388.78, 282.54 387.56, 284.06 385.68 C 285.57 383.81, 286.28 382.81, 287.00 381.65 C 287.71 380.50, 287.79 380.08, 287.64 379.92 C 287.48 379.77, 286.99 379.98, 286.21 380.88 C 285.44 381.77, 284.77 382.63, 283.77 384.39 C 282.78 386.16, 282.15 387.50, 281.25 389.70 C 280.35 391.90, 279.91 393.25, 279.27 395.39 C 278.64 397.53, 278.26 398.57, 278.07 400.41 C 277.89 402.25, 277.91 403.23, 278.35 404.59 C 278.78 405.94, 279.20 406.54, 280.24 407.19 C 281.29 407.83, 282.05 407.96, 283.58 407.81 C 285.10 407.67, 286.02 407.37, 287.88 406.46 C 289.74 405.54, 290.81 404.80, 292.87 403.24 C 294.92 401.68, 296.02 400.56, 298.16 398.66 C 300.29 396.76, 301.51 395.60, 303.53 393.72 C 305.55 391.84, 306.81 390.70, 308.25 389.25 C 309.69 387.79, 310.21 387.04, 310.72 386.45 C 311.22 385.87, 311.08 385.90, 310.78 386.31 C 310.48 386.72, 310.04 387.25, 309.21 388.50 C 308.38 389.76, 307.67 390.84, 306.63 392.60 C 305.60 394.36, 304.99 395.57, 304.03 397.30 C 303.07 399.02, 302.45 399.91, 301.84 401.23 C 301.22 402.55, 300.93 403.16, 300.96 403.88 C 300.99 404.60, 301.26 404.89, 301.99 404.83 C 302.73 404.76, 303.33 404.44, 304.63 403.55 C 305.93 402.65, 306.77 401.83, 308.47 400.35 C 310.18 398.88, 311.18 397.84, 313.14 396.17 C 315.10 394.51, 316.27 393.51, 318.29 392.03 C 320.30 390.55, 321.51 389.82, 323.20 388.76 C 324.89 387.71, 325.70 387.26, 326.75 386.75 C 327.80 386.24, 328.13 386.08, 328.45 386.22 C 328.78 386.36, 328.61 386.62, 328.36 387.44 C 328.10 388.26, 327.73 388.97, 327.19 390.32 C 326.64 391.66, 326.24 392.57, 325.62 394.16 C 325.01 395.75, 324.54 396.72, 324.11 398.28 C 323.67 399.84, 323.38 400.69, 323.46 401.98 C 323.54 403.26, 323.80 403.91, 324.50 404.70 C 325.21 405.48, 325.68 405.78, 326.98 405.91 C 328.27 406.03, 329.13 405.89, 330.96 405.32 C 332.79 404.74, 333.95 404.21, 336.13 403.03 C 338.31 401.84, 339.52 400.95, 341.86 399.39 C 344.21 397.83, 345.56 396.85, 347.87 395.22 C 350.18 393.58, 351.42 392.67, 353.43 391.20 C 355.45 389.73, 356.43 388.95, 357.94 387.87 C 359.45 386.79, 360.05 386.36, 360.97 385.81 C 361.89 385.25, 362.14 385.13, 362.54 385.09 C 362.93 385.06, 362.89 385.23, 362.95 385.63 C 363.02 386.04, 362.92 386.34, 362.86 387.12 C 362.79 387.89, 362.78 388.45, 362.62 389.51 C 362.46 390.57, 362.39 391.24, 362.05 392.43 C 361.72 393.62, 361.52 394.27, 360.95 395.47 C 360.38 396.67, 360.05 397.33, 359.19 398.43 C 358.34 399.53, 357.82 400.02, 356.69 400.99 C 355.56 401.95, 354.86 402.41, 353.54 403.26 C 352.21 404.11, 351.46 404.51, 350.07 405.23 C 348.68 405.94, 347.86 406.31, 346.60 406.83 C 345.34 407.35, 344.66 407.42, 343.76 407.82 C 342.87 408.23, 342.38 408.40, 342.12 408.86 C 341.85 409.32, 341.95 409.80, 342.42 410.14 C 342.88 410.48, 343.31 410.59, 344.43 410.57 C 345.54 410.54, 346.25 410.39, 347.98 410.01 C 349.71 409.62, 350.84 409.31, 353.09 408.64 C 355.34 407.98, 356.59 407.48, 359.22 406.70 C 361.84 405.93, 363.36 405.53, 366.21 404.77 C 369.05 404.02, 370.64 403.65, 373.46 402.93 C 376.27 402.20, 377.75 401.82, 380.27 401.15 C 382.80 400.48, 384.11 400.16, 386.07 399.58 C 388.03 399.00, 388.86 398.71, 390.07 398.25 C 391.28 397.79, 391.74 397.60, 392.12 397.29 C 392.50 396.98, 392.46 396.81, 391.98 396.72 C 391.50 396.63, 391.00 396.67, 389.72 396.84 C 388.44 397.01, 387.56 397.13, 385.56 397.55 C 383.56 397.98, 382.24 398.33, 379.71 398.97 C 377.18 399.61, 375.71 400.03, 372.90 400.74 C 370.08 401.45, 368.51 401.83, 365.64 402.54 C 362.76 403.24, 361.19 403.56, 358.53 404.27 C 355.88 404.98, 354.61 405.48, 352.37 406.09 C 350.13 406.70, 349.00 406.86, 347.32 407.30 C 345.65 407.75, 344.96 407.94, 344.00 408.32 C 343.03 408.69, 342.80 408.89, 342.51 409.16 C 342.22 409.43, 342.18 409.53, 342.55 409.65 C 342.91 409.77, 343.35 409.90, 344.33 409.76 C 345.30 409.62, 346.06 409.46, 347.42 408.97 C 348.79 408.47, 349.67 408.06, 351.14 407.31 C 352.61 406.55, 353.38 406.11, 354.78 405.18 C 356.19 404.26, 356.93 403.77, 358.17 402.70 C 359.40 401.63, 360.00 401.06, 360.97 399.82 C 361.95 398.58, 362.35 397.85, 363.04 396.51 C 363.73 395.18, 363.99 394.48, 364.42 393.15 C 364.85 391.81, 365.08 391.08, 365.21 389.84 C 365.34 388.59, 365.28 387.91, 365.07 386.93 C 364.86 385.96, 364.64 385.56, 364.15 384.97 C 363.66 384.37, 363.40 384.10, 362.62 383.97 C 361.85 383.85, 361.43 383.90, 360.27 384.34 C 359.11 384.78, 358.45 385.18, 356.82 386.18 C 355.19 387.18, 354.19 387.93, 352.12 389.34 C 350.06 390.75, 348.82 391.65, 346.49 393.23 C 344.16 394.81, 342.79 395.74, 340.46 397.24 C 338.13 398.73, 336.92 399.55, 334.85 400.70 C 332.78 401.85, 331.69 402.31, 330.11 402.99 C 328.52 403.67, 327.86 403.95, 326.95 404.12 C 326.03 404.28, 325.87 404.22, 325.55 403.80 C 325.22 403.39, 325.16 403.00, 325.33 402.05 C 325.50 401.11, 325.83 400.44, 326.40 399.06 C 326.97 397.69, 327.53 396.78, 328.19 395.19 C 328.84 393.60, 329.31 392.65, 329.69 391.12 C 330.06 389.59, 330.22 388.68, 330.07 387.53 C 329.92 386.38, 329.71 385.84, 328.93 385.36 C 328.16 384.89, 327.59 384.86, 326.22 385.16 C 324.85 385.45, 323.98 385.86, 322.10 386.84 C 320.23 387.81, 318.99 388.56, 316.85 390.01 C 314.72 391.46, 313.51 392.47, 311.44 394.10 C 309.38 395.72, 308.22 396.63, 306.53 398.15 C 304.83 399.66, 303.98 400.53, 302.97 401.69 C 301.96 402.86, 301.70 403.46, 301.47 403.97 C 301.25 404.47, 301.42 404.56, 301.86 404.24 C 302.31 403.92, 302.81 403.49, 303.70 402.39 C 304.59 401.28, 305.20 400.36, 306.33 398.71 C 307.45 397.06, 308.30 395.96, 309.31 394.12 C 310.32 392.28, 310.91 391.06, 311.38 389.51 C 311.86 387.95, 311.90 387.16, 311.66 386.35 C 311.42 385.55, 311.16 385.25, 310.18 385.49 C 309.20 385.73, 308.44 386.28, 306.77 387.56 C 305.10 388.83, 303.89 390.02, 301.83 391.86 C 299.77 393.71, 298.59 394.91, 296.48 396.77 C 294.37 398.63, 293.24 399.68, 291.29 401.18 C 289.34 402.69, 288.34 403.37, 286.73 404.31 C 285.12 405.25, 284.39 405.56, 283.24 405.88 C 282.09 406.21, 281.64 406.25, 280.99 405.91 C 280.34 405.57, 280.16 405.21, 279.99 404.17 C 279.82 403.13, 279.81 402.31, 280.13 400.71 C 280.44 399.11, 280.82 398.14, 281.57 396.17 C 282.32 394.19, 282.93 392.94, 283.89 390.84 C 284.84 388.74, 285.57 387.49, 286.34 385.66 C 287.12 383.82, 287.50 382.84, 287.77 381.66 C 288.03 380.48, 288.07 379.97, 287.68 379.76 C 287.28 379.55, 286.86 379.71, 285.79 380.60 C 284.73 381.50, 283.96 382.44, 282.35 384.22 C 280.74 386.00, 279.76 387.28, 277.74 389.49 C 275.73 391.70, 274.46 393.10, 272.26 395.27 C 270.07 397.44, 268.82 398.58, 266.76 400.32 C 264.69 402.07, 263.59 402.82, 261.93 403.98 C 260.28 405.14, 259.48 405.59, 258.49 406.11 C 257.49 406.63, 257.18 406.82, 256.94 406.57 C 256.70 406.33, 256.74 405.98, 257.27 404.90 C 257.80 403.83, 258.31 402.97, 259.59 401.19 C 260.86 399.41, 261.75 398.25, 263.65 396.01 C 265.56 393.78, 266.84 392.29, 269.11 390.03 C 271.39 387.78, 272.80 386.58, 275.04 384.74 C 277.29 382.89, 278.49 382.17, 280.32 380.81 C 282.15 379.44, 283.03 378.94, 284.19 377.91 C 285.34 376.88, 285.78 376.38, 286.10 375.67 C 286.42 374.96, 286.42 374.65, 285.79 374.36 C 285.17 374.08, 284.52 374.04, 282.97 374.24 C 281.42 374.45, 280.39 374.71, 278.05 375.39 C 275.70 376.06, 274.20 376.60, 271.25 377.63 C 268.31 378.67, 266.58 379.35, 263.33 380.57 C 260.08 381.79, 258.32 382.49, 255.00 383.72 C 251.69 384.95, 249.89 385.67, 246.74 386.71 C 243.59 387.74, 241.95 388.09, 239.25 388.91 C 236.56 389.73, 235.24 390.19, 233.27 390.80 C 231.31 391.42, 230.50 391.60, 229.42 391.99 C 228.34 392.38, 228.15 392.46, 227.86 392.76 C 227.57 393.06, 227.59 393.29, 227.97 393.50" style="stroke: currentColor; fill: currentColor;"/><path d="M 400.59,386.71 C 401.24 386.94, 402.10 386.85, 403.75 386.94 C 405.41 387.02, 406.56 387.26, 408.87 387.13 C 411.18 387.01, 414.01 386.77, 415.29 386.32 C 416.57 385.87, 416.57 385.28, 415.27 384.87 C 413.97 384.47, 411.12 384.27, 408.79 384.28 C 406.46 384.28, 405.28 384.59, 403.62 384.90 C 401.96 385.20, 401.10 385.44, 400.49 385.80 C 399.89 386.17, 399.94 386.48, 400.59 386.71" style="stroke: currentColor; fill: currentColor;"/><path d="M 467.55,345.95 C 467.18 346.11, 467.04 346.26, 466.36 347.11 C 465.68 347.96, 465.28 348.43, 464.14 350.19 C 463.00 351.95, 462.34 353.19, 460.66 355.89 C 458.97 358.60, 458.00 360.31, 455.72 363.71 C 453.45 367.12, 451.99 369.15, 449.28 372.90 C 446.58 376.65, 445.00 378.75, 442.19 382.45 C 439.38 386.16, 437.85 388.10, 435.25 391.43 C 432.65 394.76, 431.20 396.49, 429.18 399.10 C 427.16 401.71, 426.23 402.80, 425.15 404.50 C 424.06 406.19, 423.83 406.83, 423.77 407.58 C 423.71 408.33, 423.93 408.46, 424.85 408.23 C 425.76 407.99, 426.57 407.61, 428.34 406.39 C 430.11 405.16, 431.21 404.12, 433.70 402.10 C 436.19 400.08, 437.56 398.67, 440.78 396.30 C 444.00 393.92, 446.04 392.60, 449.81 390.22 C 453.58 387.85, 455.73 386.69, 459.62 384.42 C 463.52 382.15, 465.56 381.02, 469.28 378.87 C 473.01 376.73, 474.93 375.65, 478.25 373.70 C 481.57 371.75, 483.17 370.84, 485.87 369.14 C 488.58 367.44, 489.80 366.62, 491.78 365.19 C 493.76 363.76, 494.60 363.12, 495.76 362.00 C 496.92 360.89, 497.34 360.44, 497.58 359.61 C 497.81 358.78, 497.54 358.19, 496.95 357.87 C 496.36 357.54, 495.07 357.73, 494.64 357.99 C 494.20 358.24, 494.36 358.98, 494.76 359.15 C 495.15 359.33, 496.25 358.85, 496.63 358.84 C 497.01 358.84, 497.06 358.76, 496.66 359.13 C 496.26 359.49, 495.85 359.79, 494.64 360.69 C 493.44 361.58, 492.59 362.21, 490.64 363.60 C 488.69 364.98, 487.53 365.86, 484.89 367.61 C 482.25 369.36, 480.71 370.34, 477.44 372.34 C 474.17 374.34, 472.26 375.44, 468.55 377.60 C 464.84 379.77, 462.80 380.91, 458.89 383.16 C 454.98 385.42, 452.82 386.57, 448.99 388.90 C 445.16 391.22, 443.09 392.55, 439.73 394.80 C 436.37 397.05, 434.77 398.23, 432.19 400.15 C 429.60 402.08, 428.38 402.99, 426.79 404.42 C 425.20 405.86, 424.72 406.63, 424.24 407.32 C 423.76 408.01, 423.94 408.24, 424.41 407.88 C 424.87 407.52, 425.32 407.05, 426.56 405.51 C 427.80 403.97, 428.63 402.82, 430.60 400.19 C 432.58 397.56, 433.90 395.73, 436.45 392.35 C 439.00 388.98, 440.53 387.03, 443.34 383.32 C 446.15 379.61, 447.74 377.52, 450.52 373.81 C 453.29 370.09, 454.77 368.07, 457.20 364.74 C 459.62 361.42, 460.81 359.84, 462.63 357.19 C 464.46 354.54, 465.25 353.34, 466.30 351.50 C 467.35 349.65, 467.49 349.00, 467.87 347.96 C 468.25 346.92, 468.28 346.71, 468.21 346.31 C 468.15 345.90, 467.92 345.79, 467.55 345.95" style="stroke: currentColor; fill: currentColor;"/><path d="M 470.50,379.37 C 470.10 379.68, 469.79 380.17, 469.33 381.20 C 468.87 382.23, 468.58 382.94, 468.20 384.51 C 467.82 386.08, 467.67 387.17, 467.44 389.03 C 467.21 390.89, 467.19 391.94, 467.06 393.83 C 466.92 395.71, 466.75 396.74, 466.75 398.45 C 466.75 400.15, 466.79 400.95, 467.06 402.35 C 467.34 403.75, 467.51 404.45, 468.13 405.45 C 468.75 406.44, 469.16 406.89, 470.15 407.35 C 471.14 407.80, 471.74 407.96, 473.07 407.72 C 474.40 407.48, 475.28 407.09, 476.79 406.15 C 478.30 405.21, 479.04 404.44, 480.62 403.03 C 482.20 401.62, 483.05 400.75, 484.68 399.11 C 486.30 397.47, 487.13 396.51, 488.75 394.85 C 490.37 393.18, 491.31 392.30, 492.77 390.80 C 494.24 389.31, 495.00 388.43, 496.08 387.37 C 497.16 386.30, 497.68 385.86, 498.17 385.47 C 498.66 385.09, 498.70 385.02, 498.54 385.45 C 498.37 385.88, 498.04 386.39, 497.34 387.62 C 496.65 388.86, 496.05 389.86, 495.06 391.63 C 494.08 393.40, 493.48 394.61, 492.40 396.45 C 491.32 398.28, 490.59 399.29, 489.65 400.82 C 488.71 402.34, 488.13 403.16, 487.70 404.07 C 487.28 404.98, 487.20 405.35, 487.51 405.38 C 487.83 405.40, 488.29 405.17, 489.29 404.21 C 490.30 403.25, 491.02 402.28, 492.54 400.58 C 494.06 398.88, 495.07 397.66, 496.90 395.72 C 498.73 393.78, 499.89 392.64, 501.69 390.89 C 503.49 389.14, 504.35 388.23, 505.88 386.95 C 507.41 385.68, 508.15 385.23, 509.33 384.53 C 510.51 383.83, 510.97 383.66, 511.79 383.46 C 512.61 383.27, 512.82 383.36, 513.43 383.57 C 514.04 383.77, 514.23 384.04, 514.83 384.48 C 515.43 384.92, 515.69 385.28, 516.44 385.76 C 517.19 386.24, 517.63 386.49, 518.57 386.88 C 519.51 387.26, 520.03 387.45, 521.16 387.68 C 522.28 387.90, 522.95 387.92, 524.19 387.99 C 525.43 388.06, 526.18 388.06, 527.36 388.02 C 528.54 387.97, 529.26 387.85, 530.11 387.75 C 530.95 387.66, 531.30 387.41, 531.57 387.54 C 531.84 387.68, 531.76 387.79, 531.46 388.42 C 531.15 389.05, 530.79 389.53, 530.05 390.70 C 529.30 391.86, 528.68 392.68, 527.72 394.26 C 526.76 395.83, 526.14 396.92, 525.25 398.57 C 524.36 400.21, 523.85 401.11, 523.29 402.49 C 522.72 403.88, 522.45 404.43, 522.42 405.50 C 522.39 406.56, 522.53 407.21, 523.13 407.81 C 523.73 408.41, 524.46 408.52, 525.44 408.51 C 526.41 408.50, 527.17 408.28, 528.03 407.75 C 528.88 407.23, 529.52 406.46, 529.73 405.88 C 529.94 405.31, 529.65 404.95, 529.08 404.88 C 528.51 404.80, 527.67 405.19, 526.87 405.52 C 526.07 405.86, 525.65 406.27, 525.07 406.56 C 524.48 406.84, 524.16 407.10, 523.94 406.94 C 523.72 406.78, 523.72 406.45, 523.97 405.75 C 524.23 405.05, 524.51 404.63, 525.22 403.46 C 525.93 402.29, 526.54 401.45, 527.53 399.90 C 528.51 398.35, 529.19 397.32, 530.14 395.72 C 531.10 394.12, 531.70 393.29, 532.30 391.89 C 532.91 390.50, 533.16 389.82, 533.19 388.76 C 533.21 387.69, 533.01 387.20, 532.42 386.58 C 531.83 385.96, 531.25 385.86, 530.23 385.66 C 529.22 385.45, 528.52 385.55, 527.33 385.53 C 526.14 385.51, 525.44 385.57, 524.29 385.55 C 523.13 385.52, 522.54 385.55, 521.56 385.40 C 520.58 385.25, 520.19 385.10, 519.40 384.80 C 518.60 384.49, 518.29 384.26, 517.57 383.87 C 516.86 383.47, 516.58 383.17, 515.83 382.80 C 515.08 382.43, 514.69 382.20, 513.82 382.03 C 512.96 381.85, 512.56 381.75, 511.49 381.93 C 510.41 382.11, 509.85 382.25, 508.47 382.92 C 507.09 383.60, 506.27 384.06, 504.58 385.29 C 502.89 386.52, 501.97 387.40, 500.03 389.09 C 498.09 390.78, 496.83 391.82, 494.88 393.74 C 492.93 395.66, 491.74 396.84, 490.29 398.69 C 488.83 400.55, 488.23 401.69, 487.61 403.01 C 486.99 404.34, 486.95 404.91, 487.21 405.32 C 487.46 405.74, 488.00 405.69, 488.88 405.07 C 489.77 404.45, 490.47 403.66, 491.63 402.22 C 492.79 400.78, 493.48 399.71, 494.69 397.87 C 495.89 396.03, 496.67 394.89, 497.64 393.02 C 498.61 391.14, 499.16 390.03, 499.55 388.48 C 499.94 386.94, 499.93 386.13, 499.58 385.30 C 499.23 384.47, 498.76 384.23, 497.79 384.33 C 496.82 384.42, 496.06 384.79, 494.73 385.76 C 493.40 386.73, 492.67 387.67, 491.14 389.15 C 489.60 390.64, 488.69 391.53, 487.05 393.17 C 485.42 394.81, 484.57 395.77, 482.94 397.36 C 481.31 398.95, 480.42 399.77, 478.91 401.12 C 477.40 402.47, 476.68 403.16, 475.40 404.09 C 474.13 405.02, 473.48 405.41, 472.55 405.78 C 471.63 406.14, 471.36 406.13, 470.79 405.90 C 470.21 405.67, 470.02 405.38, 469.67 404.60 C 469.33 403.83, 469.18 403.26, 469.04 402.04 C 468.90 400.82, 468.88 400.11, 468.97 398.51 C 469.06 396.91, 469.28 395.89, 469.50 394.06 C 469.72 392.23, 469.82 391.18, 470.07 389.37 C 470.31 387.56, 470.50 386.55, 470.74 385.02 C 470.98 383.49, 471.14 382.81, 471.26 381.74 C 471.39 380.66, 471.52 380.12, 471.37 379.65 C 471.22 379.18, 470.91 379.06, 470.50 379.37" style="stroke: currentColor; fill: currentColor;"/><path d="M 544.91,369.03 C 544.74 369.31, 544.85 369.41, 544.96 369.37 C 545.07 369.33, 545.33 369.05, 545.45 368.84 C 545.57 368.63, 545.46 368.55, 545.56 368.34 C 545.66 368.13, 545.91 367.87, 545.96 367.79 C 546.01 367.71, 546.01 367.71, 545.80 367.95 C 545.59 368.20, 545.08 368.75, 544.91 369.03" style="stroke: currentColor; fill: currentColor;"/><path d="M 563.07,382.01 C 562.73 381.80, 562.37 381.72, 561.62 381.79 C 560.86 381.86, 560.32 381.99, 559.28 382.36 C 558.24 382.73, 557.57 382.99, 556.43 383.64 C 555.28 384.28, 554.61 384.78, 553.56 385.60 C 552.51 386.42, 551.96 386.78, 551.16 387.73 C 550.36 388.68, 549.95 389.29, 549.56 390.33 C 549.17 391.37, 549.07 391.90, 549.21 392.94 C 549.35 393.97, 549.57 394.49, 550.24 395.49 C 550.91 396.49, 551.49 397.02, 552.56 397.94 C 553.64 398.86, 554.40 399.28, 555.63 400.09 C 556.86 400.90, 557.64 401.30, 558.71 401.99 C 559.77 402.67, 560.36 402.96, 560.96 403.53 C 561.55 404.10, 561.72 404.33, 561.68 404.85 C 561.65 405.36, 561.45 405.60, 560.78 406.11 C 560.12 406.62, 559.59 406.87, 558.36 407.40 C 557.13 407.93, 556.21 408.25, 554.64 408.74 C 553.06 409.23, 552.09 409.54, 550.49 409.84 C 548.88 410.14, 547.92 410.23, 546.61 410.23 C 545.31 410.24, 544.67 410.18, 543.95 409.86 C 543.23 409.54, 543.01 409.35, 543.00 408.62 C 542.99 407.90, 543.17 407.39, 543.90 406.23 C 544.64 405.08, 545.23 404.33, 546.68 402.83 C 548.13 401.34, 549.13 400.47, 551.16 398.75 C 553.20 397.04, 554.35 396.11, 556.86 394.26 C 559.37 392.42, 560.85 391.44, 563.71 389.51 C 566.57 387.59, 568.11 386.59, 571.15 384.65 C 574.19 382.70, 575.83 381.72, 578.90 379.80 C 581.98 377.88, 583.64 376.84, 586.52 375.04 C 589.40 373.25, 590.84 372.40, 593.30 370.83 C 595.76 369.27, 597.06 368.45, 598.82 367.21 C 600.57 365.98, 601.20 365.34, 602.08 364.66 C 602.97 363.98, 603.19 363.74, 603.25 363.83 C 603.31 363.92, 603.00 364.14, 602.37 365.11 C 601.74 366.07, 601.23 366.85, 600.10 368.65 C 598.97 370.44, 598.21 371.68, 596.72 374.08 C 595.23 376.48, 594.33 378.00, 592.65 380.64 C 590.96 383.28, 589.94 384.76, 588.29 387.29 C 586.63 389.81, 585.69 391.17, 584.40 393.27 C 583.11 395.37, 582.51 396.37, 581.84 397.79 C 581.16 399.22, 581.07 399.82, 581.00 400.39 C 580.93 400.97, 581.11 400.87, 581.47 400.67 C 581.83 400.47, 582.29 400.07, 582.80 399.38 C 583.32 398.70, 583.77 398.06, 584.04 397.25 C 584.30 396.44, 584.19 395.85, 584.13 395.31 C 584.07 394.78, 583.93 394.50, 583.73 394.57 C 583.52 394.64, 583.13 394.98, 583.12 395.65 C 583.10 396.32, 583.15 397.05, 583.66 397.93 C 584.16 398.81, 584.61 399.32, 585.63 400.04 C 586.65 400.76, 587.24 401.17, 588.75 401.53 C 590.27 401.90, 591.28 402.00, 593.22 401.85 C 595.15 401.71, 596.24 401.45, 598.43 400.82 C 600.62 400.18, 601.84 399.70, 604.17 398.66 C 606.50 397.63, 607.82 396.91, 610.10 395.64 C 612.37 394.36, 613.60 393.57, 615.54 392.31 C 617.48 391.04, 618.57 390.29, 619.81 389.30 C 621.05 388.32, 621.50 387.76, 621.72 387.38 C 621.94 386.99, 621.66 386.90, 620.92 387.36 C 620.18 387.83, 619.36 388.41, 618.03 389.71 C 616.71 391.01, 615.71 392.06, 614.29 393.87 C 612.87 395.68, 612.05 396.94, 610.94 398.76 C 609.83 400.58, 609.19 401.50, 608.74 402.99 C 608.29 404.47, 608.23 405.25, 608.68 406.16 C 609.14 407.08, 609.77 407.38, 611.03 407.56 C 612.30 407.74, 613.07 407.58, 615.01 407.06 C 616.96 406.54, 618.28 406.10, 620.77 404.96 C 623.26 403.83, 624.67 402.90, 627.47 401.40 C 630.26 399.90, 631.81 398.99, 634.72 397.46 C 637.64 395.93, 639.28 395.12, 642.04 393.76 C 644.80 392.40, 646.24 391.71, 648.52 390.65 C 650.80 389.60, 651.87 389.17, 653.44 388.49 C 655.02 387.80, 655.69 387.60, 656.38 387.24 C 657.07 386.88, 657.26 386.67, 656.89 386.70 C 656.52 386.73, 655.90 386.82, 654.53 387.39 C 653.15 387.96, 652.04 388.46, 650.04 389.57 C 648.03 390.69, 646.72 391.51, 644.49 392.95 C 642.26 394.39, 640.86 395.29, 638.87 396.78 C 636.87 398.26, 635.83 399.07, 634.52 400.38 C 633.21 401.69, 632.83 402.31, 632.33 403.32 C 631.83 404.32, 631.71 404.81, 632.02 405.40 C 632.33 406.00, 632.83 406.27, 633.88 406.29 C 634.94 406.32, 635.76 406.17, 637.31 405.54 C 638.85 404.91, 639.69 404.30, 641.62 403.15 C 643.55 402.00, 644.78 401.23, 646.95 399.77 C 649.13 398.31, 650.40 397.43, 652.49 395.86 C 654.59 394.30, 655.82 393.30, 657.44 391.95 C 659.07 390.61, 659.89 389.94, 660.62 389.14 C 661.36 388.34, 661.35 388.00, 661.14 387.94 C 660.93 387.89, 660.47 388.08, 659.58 388.88 C 658.69 389.68, 657.79 390.51, 656.69 391.95 C 655.59 393.38, 654.96 394.48, 654.08 396.06 C 653.20 397.64, 652.66 398.46, 652.30 399.86 C 651.95 401.27, 651.87 402.09, 652.29 403.08 C 652.71 404.07, 653.19 404.50, 654.40 404.80 C 655.61 405.11, 656.53 405.02, 658.34 404.61 C 660.15 404.20, 661.23 403.72, 663.45 402.74 C 665.68 401.76, 667.00 400.98, 669.47 399.70 C 671.93 398.42, 673.42 397.60, 675.78 396.33 C 678.15 395.06, 679.38 394.36, 681.30 393.36 C 683.22 392.36, 684.22 391.92, 685.38 391.34 C 686.55 390.77, 686.95 390.50, 687.12 390.50 C 687.30 390.50, 686.94 390.70, 686.26 391.34 C 685.58 391.97, 684.84 392.59, 683.74 393.65 C 682.65 394.71, 681.71 395.50, 680.78 396.64 C 679.86 397.78, 679.41 398.54, 679.12 399.35 C 678.84 400.17, 678.79 400.56, 679.34 400.71 C 679.89 400.87, 680.48 400.74, 681.88 400.12 C 683.27 399.51, 684.30 398.83, 686.33 397.64 C 688.37 396.45, 689.67 395.47, 692.03 394.17 C 694.39 392.88, 695.80 392.12, 698.15 391.19 C 700.50 390.25, 701.80 389.89, 703.79 389.51 C 705.79 389.14, 706.73 389.13, 708.14 389.31 C 709.54 389.49, 710.02 389.76, 710.82 390.41 C 711.63 391.06, 711.87 391.52, 712.17 392.57 C 712.47 393.62, 712.37 394.30, 712.33 395.66 C 712.30 397.02, 712.11 397.92, 711.98 399.37 C 711.85 400.82, 711.67 401.59, 711.68 402.92 C 711.70 404.25, 711.67 405.02, 712.07 406.03 C 712.46 407.05, 712.89 407.46, 713.64 407.99 C 714.39 408.52, 715.02 408.66, 715.82 408.68 C 716.61 408.71, 717.28 408.44, 717.63 408.13 C 717.97 407.81, 717.87 407.37, 717.55 407.11 C 717.22 406.85, 716.58 406.93, 715.99 406.82 C 715.39 406.72, 715.01 406.86, 714.56 406.60 C 714.12 406.34, 713.91 406.23, 713.78 405.52 C 713.65 404.80, 713.79 404.20, 713.91 403.02 C 714.04 401.84, 714.27 401.09, 714.42 399.61 C 714.57 398.12, 714.76 397.15, 714.67 395.62 C 714.57 394.08, 714.50 393.21, 713.94 391.92 C 713.38 390.62, 712.95 390.00, 711.85 389.13 C 710.75 388.25, 710.11 387.89, 708.43 387.55 C 706.76 387.20, 705.70 387.15, 703.47 387.42 C 701.25 387.69, 699.86 388.05, 697.32 388.91 C 694.77 389.77, 693.26 390.48, 690.75 391.72 C 688.25 392.96, 686.80 393.81, 684.78 395.10 C 682.75 396.39, 681.77 397.18, 680.64 398.19 C 679.50 399.20, 679.18 399.71, 679.09 400.15 C 679.00 400.59, 679.41 400.66, 680.18 400.40 C 680.96 400.13, 681.82 399.77, 682.98 398.81 C 684.13 397.84, 685.02 396.90, 685.98 395.57 C 686.93 394.24, 687.44 393.29, 687.74 392.16 C 688.05 391.03, 688.07 390.42, 687.49 389.93 C 686.91 389.44, 686.28 389.42, 684.85 389.71 C 683.41 389.99, 682.37 390.46, 680.34 391.34 C 678.30 392.23, 677.06 392.94, 674.65 394.14 C 672.24 395.34, 670.73 396.12, 668.27 397.35 C 665.81 398.59, 664.47 399.31, 662.35 400.30 C 660.23 401.29, 659.22 401.73, 657.66 402.30 C 656.11 402.88, 655.41 403.11, 654.59 403.19 C 653.76 403.26, 653.59 403.20, 653.52 402.68 C 653.44 402.16, 653.63 401.62, 654.21 400.60 C 654.79 399.57, 655.42 398.93, 656.42 397.55 C 657.43 396.18, 658.27 395.24, 659.24 393.73 C 660.20 392.22, 660.81 391.17, 661.25 390.00 C 661.68 388.83, 661.72 388.30, 661.42 387.88 C 661.13 387.46, 660.86 387.47, 659.78 387.91 C 658.70 388.34, 657.79 388.89, 656.04 390.07 C 654.28 391.25, 653.11 392.32, 651.00 393.82 C 648.90 395.32, 647.67 396.18, 645.51 397.58 C 643.35 398.98, 642.07 399.69, 640.21 400.82 C 638.35 401.95, 637.53 402.49, 636.20 403.24 C 634.87 404.00, 634.27 404.23, 633.55 404.61 C 632.84 404.98, 632.64 405.21, 632.64 405.12 C 632.63 405.03, 632.89 404.81, 633.54 404.17 C 634.19 403.53, 634.55 402.99, 635.90 401.92 C 637.25 400.85, 638.29 400.14, 640.30 398.81 C 642.31 397.49, 643.71 396.65, 645.95 395.30 C 648.20 393.96, 649.55 393.30, 651.51 392.10 C 653.46 390.91, 654.54 390.33, 655.72 389.33 C 656.91 388.32, 657.35 387.72, 657.44 387.08 C 657.53 386.43, 657.11 386.17, 656.18 386.09 C 655.25 386.01, 654.49 386.16, 652.78 386.68 C 651.07 387.21, 649.96 387.65, 647.63 388.69 C 645.29 389.73, 643.88 390.49, 641.10 391.87 C 638.33 393.26, 636.70 394.12, 633.77 395.62 C 630.83 397.11, 629.24 397.99, 626.42 399.36 C 623.60 400.74, 622.09 401.42, 619.66 402.49 C 617.22 403.57, 615.97 404.04, 614.25 404.74 C 612.52 405.43, 611.93 405.77, 611.02 405.97 C 610.11 406.17, 609.80 406.19, 609.69 405.75 C 609.58 405.30, 609.80 404.84, 610.47 403.74 C 611.14 402.63, 611.80 401.81, 613.05 400.22 C 614.30 398.63, 615.28 397.54, 616.70 395.79 C 618.12 394.04, 619.08 393.01, 620.14 391.48 C 621.20 389.95, 621.73 389.10, 622.01 388.14 C 622.29 387.19, 622.18 386.84, 621.52 386.73 C 620.86 386.61, 620.17 386.87, 618.72 387.58 C 617.27 388.30, 616.24 389.11, 614.28 390.30 C 612.32 391.48, 611.14 392.28, 608.92 393.51 C 606.70 394.73, 605.41 395.42, 603.17 396.41 C 600.94 397.40, 599.77 397.86, 597.74 398.46 C 595.71 399.06, 594.71 399.25, 593.01 399.41 C 591.31 399.58, 590.46 399.52, 589.26 399.28 C 588.06 399.03, 587.68 398.72, 587.01 398.18 C 586.34 397.65, 586.29 397.23, 585.91 396.61 C 585.52 395.98, 585.46 395.57, 585.10 395.06 C 584.74 394.55, 584.59 394.22, 584.08 394.07 C 583.58 393.92, 583.22 393.96, 582.58 394.33 C 581.94 394.69, 581.32 395.07, 580.89 395.92 C 580.45 396.77, 580.42 397.64, 580.39 398.57 C 580.36 399.50, 580.45 400.11, 580.73 400.58 C 581.00 401.04, 581.23 401.27, 581.77 400.90 C 582.31 400.52, 582.55 400.02, 583.45 398.73 C 584.35 397.44, 584.92 396.50, 586.26 394.46 C 587.60 392.41, 588.50 391.03, 590.16 388.52 C 591.82 386.01, 592.79 384.50, 594.56 381.91 C 596.33 379.31, 597.44 377.93, 599.01 375.55 C 600.59 373.16, 601.43 371.94, 602.44 369.98 C 603.45 368.02, 603.82 367.07, 604.06 365.75 C 604.31 364.44, 604.20 363.87, 603.67 363.39 C 603.13 362.92, 602.59 362.95, 601.40 363.38 C 600.21 363.80, 599.55 364.39, 597.71 365.53 C 595.86 366.67, 594.60 367.48, 592.17 369.07 C 589.73 370.66, 588.36 371.63, 585.52 373.48 C 582.68 375.32, 581.03 376.36, 577.96 378.29 C 574.89 380.22, 573.24 381.20, 570.18 383.12 C 567.12 385.04, 565.57 386.03, 562.65 387.90 C 559.74 389.78, 558.22 390.71, 555.60 392.49 C 552.99 394.27, 551.72 395.09, 549.57 396.81 C 547.41 398.53, 546.34 399.41, 544.82 401.10 C 543.30 402.78, 542.65 403.69, 541.98 405.23 C 541.31 406.77, 541.23 407.61, 541.46 408.81 C 541.69 410.01, 542.11 410.53, 543.11 411.25 C 544.11 411.97, 544.91 412.19, 546.46 412.40 C 548.01 412.61, 549.08 412.53, 550.87 412.31 C 552.66 412.08, 553.70 411.80, 555.42 411.27 C 557.14 410.73, 558.13 410.39, 559.48 409.63 C 560.83 408.87, 561.42 408.39, 562.17 407.45 C 562.91 406.51, 563.15 405.94, 563.20 404.93 C 563.25 403.92, 563.04 403.35, 562.42 402.38 C 561.81 401.41, 561.18 400.97, 560.11 400.08 C 559.04 399.20, 558.26 398.78, 557.06 397.96 C 555.87 397.14, 555.16 396.73, 554.12 395.98 C 553.09 395.22, 552.53 394.85, 551.89 394.19 C 551.25 393.53, 551.04 393.29, 550.93 392.68 C 550.82 392.06, 550.97 391.81, 551.34 391.11 C 551.71 390.42, 552.06 389.93, 552.78 389.22 C 553.51 388.51, 553.98 388.21, 554.97 387.57 C 555.96 386.93, 556.65 386.57, 557.72 386.01 C 558.79 385.45, 559.41 385.23, 560.31 384.77 C 561.22 384.30, 561.66 384.07, 562.25 383.69 C 562.84 383.31, 563.11 383.19, 563.27 382.86 C 563.43 382.52, 563.40 382.23, 563.07 382.01" style="stroke: currentColor; fill: currentColor;"/><path d="M 783.76,376.75 C 784.17 376.60, 784.50 375.92, 784.56 375.51 C 784.62 375.10, 784.28 374.66, 784.05 374.70 C 783.82 374.73, 783.80 374.74, 783.41 375.69 C 783.02 376.63, 782.70 377.51, 782.10 379.44 C 781.50 381.38, 781.19 382.86, 780.41 385.35 C 779.64 387.84, 779.23 389.32, 778.24 391.89 C 777.24 394.46, 776.50 395.86, 775.44 398.19 C 774.38 400.52, 773.64 401.82, 772.93 403.53 C 772.21 405.25, 772.03 405.94, 771.84 406.78 C 771.65 407.62, 771.73 407.83, 771.97 407.72 C 772.21 407.60, 772.52 407.25, 773.04 406.21 C 773.56 405.17, 773.91 404.32, 774.57 402.52 C 775.24 400.72, 775.51 399.52, 776.34 397.22 C 777.17 394.93, 777.62 393.51, 778.73 391.05 C 779.84 388.58, 780.50 387.25, 781.90 384.90 C 783.30 382.55, 784.16 381.36, 785.73 379.29 C 787.31 377.22, 788.18 376.20, 789.78 374.53 C 791.38 372.87, 792.16 372.12, 793.73 370.97 C 795.31 369.81, 796.12 369.39, 797.64 368.75 C 799.15 368.10, 799.91 367.97, 801.31 367.76 C 802.71 367.56, 803.45 367.60, 804.64 367.71 C 805.84 367.82, 806.39 367.97, 807.29 368.33 C 808.19 368.68, 808.52 368.98, 809.14 369.50 C 809.75 370.02, 810.12 370.34, 810.36 370.93 C 810.61 371.52, 810.56 371.73, 810.36 372.45 C 810.16 373.16, 810.06 373.63, 809.36 374.50 C 808.66 375.38, 808.10 375.84, 806.87 376.84 C 805.64 377.83, 804.80 378.39, 803.20 379.47 C 801.59 380.55, 800.60 381.15, 798.85 382.23 C 797.10 383.32, 796.02 383.85, 794.46 384.90 C 792.90 385.94, 792.12 386.52, 791.07 387.47 C 790.01 388.43, 789.65 388.85, 789.19 389.67 C 788.73 390.50, 788.69 390.82, 788.77 391.58 C 788.85 392.34, 789.05 392.70, 789.60 393.48 C 790.14 394.27, 790.60 394.68, 791.48 395.51 C 792.37 396.34, 793.00 396.71, 794.01 397.63 C 795.03 398.55, 795.65 399.09, 796.54 400.11 C 797.43 401.14, 797.85 401.74, 798.45 402.77 C 799.05 403.79, 799.34 404.27, 799.55 405.24 C 799.75 406.20, 799.81 406.66, 799.47 407.61 C 799.12 408.56, 798.79 409.00, 797.81 409.98 C 796.84 410.95, 796.17 411.46, 794.58 412.47 C 793.00 413.48, 791.97 414.06, 789.89 415.04 C 787.81 416.02, 786.46 416.50, 784.17 417.37 C 781.87 418.24, 780.54 418.68, 778.42 419.40 C 776.31 420.11, 775.22 420.47, 773.60 420.94 C 771.98 421.41, 771.23 421.55, 770.31 421.75 C 769.39 421.94, 769.14 421.94, 768.99 421.90 C 768.83 421.85, 768.97 421.81, 769.55 421.51 C 770.14 421.22, 770.64 421.04, 771.91 420.42 C 773.18 419.79, 774.08 419.33, 775.91 418.39 C 777.73 417.45, 778.82 416.86, 781.03 415.74 C 783.24 414.61, 784.51 414.04, 786.97 412.76 C 789.43 411.48, 790.77 410.75, 793.32 409.33 C 795.88 407.90, 797.23 407.15, 799.76 405.65 C 802.28 404.14, 803.53 403.33, 805.97 401.79 C 808.40 400.26, 809.67 399.44, 811.91 397.96 C 814.15 396.48, 815.32 395.67, 817.18 394.38 C 819.04 393.10, 819.84 392.45, 821.21 391.54 C 822.59 390.62, 823.27 390.22, 824.05 389.83 C 824.83 389.43, 825.01 389.30, 825.11 389.54 C 825.20 389.79, 824.90 390.10, 824.54 391.05 C 824.18 391.99, 823.85 392.71, 823.31 394.27 C 822.78 395.83, 822.40 396.87, 821.87 398.84 C 821.34 400.81, 821.14 401.98, 820.67 404.13 C 820.20 406.29, 819.92 407.41, 819.54 409.60 C 819.16 411.80, 819.05 412.99, 818.77 415.13 C 818.49 417.27, 818.44 418.39, 818.15 420.30 C 817.85 422.22, 817.68 423.17, 817.28 424.70 C 816.89 426.24, 816.70 426.86, 816.17 427.98 C 815.64 429.10, 815.34 429.59, 814.62 430.29 C 813.91 430.99, 813.49 431.22, 812.61 431.49 C 811.73 431.75, 811.21 431.68, 810.23 431.62 C 809.25 431.56, 808.61 431.46, 807.70 431.18 C 806.79 430.91, 806.36 430.72, 805.69 430.25 C 805.01 429.77, 804.69 429.46, 804.32 428.82 C 803.95 428.18, 803.86 427.87, 803.84 427.06 C 803.82 426.24, 803.83 425.78, 804.21 424.75 C 804.58 423.72, 804.83 423.13, 805.71 421.91 C 806.59 420.69, 807.23 420.01, 808.62 418.65 C 810.01 417.29, 810.84 416.53, 812.66 415.12 C 814.47 413.71, 815.54 413.00, 817.70 411.61 C 819.86 410.21, 821.10 409.54, 823.47 408.14 C 825.83 406.75, 827.10 406.02, 829.51 404.62 C 831.92 403.23, 833.18 402.52, 835.52 401.16 C 837.85 399.79, 839.05 399.11, 841.19 397.78 C 843.34 396.46, 844.43 395.77, 846.24 394.53 C 848.05 393.30, 848.96 392.68, 850.25 391.60 C 851.54 390.53, 852.07 390.06, 852.71 389.15 C 853.34 388.23, 853.52 387.76, 853.43 387.04 C 853.35 386.32, 853.05 385.85, 852.27 385.55 C 851.49 385.24, 850.79 385.19, 849.53 385.52 C 848.27 385.86, 847.42 386.25, 845.95 387.23 C 844.49 388.21, 843.64 388.95, 842.20 390.42 C 840.75 391.90, 839.99 392.91, 838.74 394.60 C 837.50 396.30, 836.81 397.21, 835.96 398.89 C 835.12 400.57, 834.71 401.48, 834.52 402.99 C 834.33 404.51, 834.43 405.30, 835.03 406.46 C 835.62 407.62, 836.16 408.16, 837.48 408.81 C 838.79 409.45, 839.72 409.63, 841.60 409.69 C 843.49 409.74, 844.58 409.63, 846.89 409.07 C 849.21 408.52, 850.61 407.92, 853.16 406.89 C 855.71 405.86, 857.13 405.15, 859.64 403.92 C 862.15 402.69, 863.48 401.95, 865.70 400.73 C 867.92 399.51, 869.13 398.81, 870.75 397.82 C 872.37 396.84, 873.07 396.38, 873.79 395.80 C 874.52 395.22, 874.55 394.95, 874.37 394.94 C 874.19 394.92, 873.71 395.09, 872.90 395.73 C 872.10 396.37, 871.33 396.99, 870.34 398.13 C 869.34 399.27, 868.71 400.21, 867.93 401.44 C 867.14 402.68, 866.69 403.39, 866.42 404.31 C 866.15 405.22, 866.22 405.65, 866.59 406.03 C 866.96 406.42, 867.44 406.49, 868.27 406.22 C 869.10 405.95, 869.71 405.54, 870.74 404.67 C 871.77 403.80, 872.32 403.00, 873.42 401.87 C 874.53 400.74, 875.10 400.07, 876.28 399.03 C 877.45 397.99, 878.15 397.44, 879.30 396.67 C 880.45 395.89, 881.06 395.55, 882.03 395.16 C 883.00 394.77, 883.37 394.72, 884.17 394.73 C 884.97 394.75, 885.26 394.90, 886.00 395.24 C 886.75 395.58, 887.03 395.94, 887.92 396.45 C 888.80 396.95, 889.28 397.36, 890.43 397.78 C 891.58 398.21, 892.20 398.44, 893.66 398.58 C 895.12 398.71, 895.95 398.70, 897.73 398.45 C 899.52 398.21, 900.57 397.97, 902.59 397.34 C 904.60 396.70, 905.74 396.19, 907.81 395.29 C 909.88 394.39, 911.07 393.91, 912.93 392.85 C 914.79 391.79, 915.82 391.13, 917.13 390.01 C 918.44 388.89, 919.11 387.92, 919.47 387.24 C 919.83 386.57, 919.62 386.38, 918.93 386.62 C 918.24 386.87, 917.45 387.64, 916.03 388.46 C 914.60 389.29, 913.65 389.84, 911.81 390.75 C 909.97 391.66, 908.83 392.17, 906.83 393.01 C 904.84 393.85, 903.72 394.34, 901.83 394.96 C 899.94 395.58, 898.96 395.82, 897.36 396.10 C 895.77 396.38, 895.07 396.43, 893.84 396.35 C 892.60 396.27, 892.18 396.07, 891.20 395.70 C 890.22 395.34, 889.85 394.97, 888.95 394.52 C 888.04 394.07, 887.64 393.77, 886.69 393.46 C 885.75 393.15, 885.28 392.99, 884.22 392.96 C 883.16 392.93, 882.62 392.94, 881.40 393.29 C 880.17 393.65, 879.45 393.98, 878.11 394.75 C 876.78 395.51, 876.03 396.10, 874.70 397.12 C 873.38 398.15, 872.66 398.76, 871.47 399.87 C 870.28 400.98, 869.61 401.68, 868.76 402.68 C 867.92 403.67, 867.61 404.22, 867.24 404.84 C 866.87 405.46, 866.78 405.68, 866.92 405.77 C 867.06 405.87, 867.27 405.81, 867.94 405.30 C 868.61 404.79, 869.28 404.29, 870.26 403.23 C 871.23 402.18, 871.94 401.29, 872.80 400.03 C 873.66 398.76, 874.15 397.95, 874.55 396.91 C 874.94 395.88, 875.04 395.33, 874.77 394.86 C 874.51 394.39, 874.23 394.33, 873.22 394.54 C 872.21 394.76, 871.45 395.12, 869.73 395.94 C 868.01 396.76, 866.83 397.51, 864.60 398.67 C 862.37 399.82, 861.06 400.54, 858.58 401.71 C 856.10 402.88, 854.66 403.53, 852.20 404.52 C 849.74 405.51, 848.40 406.07, 846.27 406.64 C 844.15 407.22, 843.20 407.31, 841.58 407.40 C 839.97 407.48, 839.23 407.40, 838.20 407.07 C 837.17 406.74, 836.82 406.50, 836.45 405.75 C 836.08 405.00, 836.07 404.48, 836.36 403.33 C 836.66 402.17, 837.06 401.41, 837.93 399.97 C 838.80 398.53, 839.49 397.65, 840.72 396.12 C 841.94 394.58, 842.70 393.61, 844.06 392.28 C 845.41 390.94, 846.22 390.35, 847.49 389.45 C 848.75 388.55, 849.47 388.26, 850.39 387.76 C 851.32 387.25, 851.69 387.05, 852.10 386.90 C 852.51 386.75, 852.57 386.77, 852.45 387.00 C 852.32 387.24, 852.16 387.47, 851.48 388.08 C 850.79 388.68, 850.31 389.09, 849.02 390.02 C 847.73 390.96, 846.84 391.56, 845.04 392.73 C 843.24 393.91, 842.17 394.60, 840.04 395.90 C 837.91 397.20, 836.72 397.87, 834.39 399.22 C 832.05 400.57, 830.79 401.26, 828.37 402.64 C 825.95 404.02, 824.67 404.73, 822.28 406.12 C 819.89 407.52, 818.64 408.19, 816.42 409.60 C 814.19 411.02, 813.08 411.74, 811.18 413.20 C 809.27 414.65, 808.39 415.43, 806.90 416.90 C 805.41 418.37, 804.70 419.11, 803.75 420.55 C 802.79 421.98, 802.50 422.75, 802.11 424.08 C 801.73 425.40, 801.74 426.04, 801.84 427.18 C 801.94 428.32, 802.10 428.83, 802.62 429.77 C 803.13 430.72, 803.54 431.21, 804.42 431.92 C 805.31 432.62, 805.88 432.93, 807.02 433.30 C 808.17 433.68, 808.92 433.80, 810.16 433.80 C 811.41 433.81, 812.09 433.78, 813.25 433.34 C 814.40 432.91, 815.01 432.53, 815.94 431.63 C 816.86 430.73, 817.21 430.11, 817.87 428.83 C 818.54 427.56, 818.77 426.89, 819.26 425.25 C 819.75 423.62, 819.98 422.63, 820.33 420.67 C 820.68 418.70, 820.72 417.56, 821.02 415.43 C 821.31 413.30, 821.41 412.16, 821.81 410.01 C 822.21 407.86, 822.51 406.77, 823.03 404.68 C 823.55 402.59, 823.84 401.49, 824.41 399.55 C 824.98 397.62, 825.45 396.66, 825.86 395.03 C 826.27 393.39, 826.47 392.58, 826.47 391.37 C 826.47 390.15, 826.41 389.55, 825.84 388.96 C 825.28 388.36, 824.76 388.22, 823.62 388.40 C 822.49 388.57, 821.72 388.99, 820.19 389.84 C 818.66 390.68, 817.88 391.35, 815.98 392.60 C 814.08 393.85, 812.92 394.62, 810.68 396.09 C 808.44 397.56, 807.20 398.41, 804.79 399.94 C 802.38 401.48, 801.16 402.30, 798.65 403.78 C 796.14 405.26, 794.80 405.98, 792.24 407.35 C 789.69 408.71, 788.34 409.38, 785.88 410.61 C 783.41 411.83, 782.15 412.39, 779.91 413.46 C 777.66 414.54, 776.53 415.01, 774.66 415.97 C 772.80 416.93, 771.84 417.35, 770.60 418.25 C 769.35 419.16, 768.87 419.66, 768.43 420.49 C 767.99 421.32, 768.00 421.84, 768.39 422.41 C 768.78 422.99, 769.23 423.24, 770.37 423.35 C 771.51 423.46, 772.34 423.32, 774.09 422.97 C 775.84 422.63, 776.94 422.27, 779.13 421.62 C 781.32 420.97, 782.66 420.57, 785.03 419.71 C 787.40 418.85, 788.80 418.38, 790.98 417.33 C 793.16 416.29, 794.24 415.66, 795.93 414.49 C 797.62 413.32, 798.35 412.71, 799.42 411.46 C 800.50 410.21, 800.89 409.53, 801.30 408.22 C 801.70 406.91, 801.64 406.20, 801.45 404.91 C 801.27 403.62, 800.98 403.02, 800.37 401.76 C 799.77 400.49, 799.35 399.79, 798.44 398.58 C 797.52 397.38, 796.86 396.73, 795.81 395.72 C 794.75 394.70, 794.12 394.25, 793.16 393.53 C 792.20 392.80, 791.67 392.53, 791.03 392.09 C 790.39 391.66, 790.09 391.66, 789.95 391.35 C 789.82 391.03, 789.89 390.99, 790.37 390.53 C 790.84 390.08, 791.25 389.78, 792.32 389.05 C 793.39 388.32, 794.15 387.81, 795.72 386.87 C 797.28 385.94, 798.36 385.42, 800.14 384.36 C 801.92 383.31, 802.95 382.70, 804.62 381.58 C 806.29 380.46, 807.17 379.91, 808.49 378.75 C 809.80 377.60, 810.45 376.98, 811.20 375.80 C 811.95 374.61, 812.07 373.94, 812.24 372.83 C 812.41 371.73, 812.42 371.23, 812.06 370.27 C 811.70 369.31, 811.25 368.79, 810.44 368.04 C 809.63 367.29, 809.14 366.99, 808.02 366.53 C 806.90 366.06, 806.25 365.85, 804.84 365.71 C 803.44 365.56, 802.61 365.54, 801.01 365.78 C 799.42 366.02, 798.57 366.21, 796.87 366.92 C 795.18 367.63, 794.27 368.09, 792.54 369.32 C 790.82 370.54, 789.97 371.32, 788.25 373.03 C 786.53 374.75, 785.63 375.79, 783.96 377.91 C 782.28 380.04, 781.38 381.26, 779.89 383.68 C 778.39 386.09, 777.68 387.47, 776.47 389.99 C 775.26 392.51, 774.73 393.95, 773.82 396.28 C 772.91 398.61, 772.48 399.76, 771.93 401.65 C 771.38 403.53, 771.13 404.46, 771.06 405.70 C 770.99 406.93, 771.21 407.50, 771.58 407.83 C 771.96 408.17, 772.28 408.06, 772.93 407.39 C 773.58 406.72, 773.90 406.11, 774.83 404.48 C 775.77 402.84, 776.46 401.55, 777.62 399.23 C 778.77 396.90, 779.50 395.45, 780.60 392.85 C 781.70 390.25, 782.25 388.76, 783.11 386.23 C 783.98 383.71, 784.44 382.26, 784.92 380.21 C 785.40 378.16, 785.59 377.18, 785.51 375.99 C 785.43 374.80, 785.05 374.55, 784.52 374.26 C 784.00 373.98, 783.28 374.16, 782.88 374.56 C 782.48 374.96, 782.36 375.83, 782.53 376.26 C 782.71 376.70, 783.36 376.90, 783.76 376.75" style="stroke: currentColor; fill: currentColor;"/><path d="M 916.27,390.57 C 915.74 390.49, 915.06 390.62, 914.05 391.02 C 913.04 391.41, 912.36 391.72, 911.21 392.54 C 910.06 393.37, 909.34 394.01, 908.31 395.14 C 907.28 396.26, 906.78 396.93, 906.06 398.16 C 905.34 399.39, 904.99 400.10, 904.71 401.30 C 904.43 402.49, 904.30 403.15, 904.64 404.14 C 904.99 405.12, 905.36 405.69, 906.43 406.21 C 907.51 406.73, 908.18 406.81, 910.00 406.74 C 911.81 406.66, 912.99 406.53, 915.51 405.85 C 918.03 405.17, 919.54 404.53, 922.61 403.32 C 925.67 402.11, 927.42 401.24, 930.83 399.82 C 934.24 398.40, 936.23 397.64, 939.66 396.23 C 943.08 394.82, 944.93 394.03, 947.93 392.76 C 950.94 391.50, 952.46 390.86, 954.68 389.90 C 956.90 388.94, 957.89 388.51, 959.05 387.95 C 960.21 387.39, 960.46 387.21, 960.49 387.12 C 960.53 387.02, 960.13 387.04, 959.23 387.46 C 958.32 387.89, 957.49 388.28, 955.96 389.23 C 954.44 390.18, 953.39 390.92, 951.61 392.22 C 949.83 393.53, 948.71 394.36, 947.05 395.75 C 945.39 397.14, 944.43 397.93, 943.30 399.16 C 942.17 400.38, 941.71 400.99, 941.39 401.87 C 941.08 402.76, 941.15 403.26, 941.72 403.58 C 942.29 403.89, 942.95 403.88, 944.23 403.45 C 945.52 403.01, 946.39 402.54, 948.15 401.41 C 949.90 400.27, 950.99 399.39, 953.02 397.77 C 955.05 396.15, 956.24 395.07, 958.29 393.32 C 960.35 391.56, 961.65 390.44, 963.31 388.99 C 964.96 387.53, 965.75 386.71, 966.56 386.04 C 967.37 385.38, 967.42 385.26, 967.36 385.66 C 967.30 386.06, 966.99 386.57, 966.28 388.06 C 965.56 389.56, 964.93 390.76, 963.79 393.13 C 962.66 395.51, 961.97 397.09, 960.61 399.95 C 959.24 402.81, 958.54 404.50, 956.97 407.44 C 955.41 410.38, 954.54 411.94, 952.79 414.66 C 951.03 417.38, 950.05 418.70, 948.21 421.03 C 946.37 423.37, 945.41 424.56, 943.58 426.34 C 941.75 428.13, 940.75 428.87, 939.05 429.97 C 937.35 431.08, 936.47 431.41, 935.08 431.85 C 933.70 432.30, 933.09 432.38, 932.13 432.20 C 931.17 432.02, 930.77 431.63, 930.29 430.96 C 929.80 430.28, 929.60 429.83, 929.73 428.82 C 929.87 427.80, 930.14 427.21, 930.96 425.89 C 931.77 424.57, 932.29 423.75, 933.79 422.21 C 935.30 420.67, 936.21 419.87, 938.48 418.18 C 940.75 416.49, 942.22 415.53, 945.13 413.74 C 948.04 411.96, 949.73 411.00, 953.05 409.24 C 956.37 407.48, 958.15 406.63, 961.72 404.95 C 965.30 403.26, 967.31 402.43, 970.91 400.82 C 974.51 399.20, 976.38 398.36, 979.71 396.89 C 983.04 395.41, 984.70 394.70, 987.56 393.43 C 990.43 392.16, 991.84 391.57, 994.02 390.52 C 996.19 389.47, 997.13 388.99, 998.44 388.16 C 999.76 387.33, 1000.19 386.98, 1000.59 386.36 C 1001.00 385.74, 1001.04 385.39, 1000.46 385.05 C 999.89 384.72, 999.15 384.48, 997.71 384.69 C 996.27 384.90, 995.22 385.23, 993.28 386.10 C 991.34 386.98, 990.11 387.74, 988.01 389.07 C 985.91 390.41, 984.62 391.29, 982.77 392.77 C 980.91 394.25, 979.99 395.10, 978.74 396.47 C 977.49 397.84, 976.94 398.51, 976.51 399.62 C 976.07 400.72, 976.10 401.34, 976.56 402.01 C 977.02 402.67, 977.66 402.91, 978.81 402.96 C 979.97 403.01, 980.74 402.83, 982.32 402.24 C 983.91 401.65, 984.91 401.09, 986.73 400.02 C 988.56 398.95, 989.59 398.19, 991.45 396.90 C 993.32 395.61, 994.36 394.84, 996.06 393.57 C 997.76 392.30, 998.86 391.59, 999.96 390.55 C 1001.06 389.52, 1001.37 388.88, 1001.54 388.39 C 1001.71 387.89, 1001.36 387.77, 1000.80 388.07 C 1000.24 388.38, 999.54 388.87, 998.72 389.89 C 997.91 390.92, 997.22 391.82, 996.72 393.22 C 996.22 394.62, 996.13 395.55, 996.23 396.88 C 996.34 398.21, 996.45 398.96, 997.24 399.85 C 998.03 400.75, 998.66 401.09, 1000.17 401.36 C 1001.69 401.62, 1002.67 401.56, 1004.81 401.19 C 1006.95 400.83, 1008.25 400.44, 1010.87 399.53 C 1013.50 398.62, 1015.06 397.85, 1017.92 396.65 C 1020.77 395.45, 1022.36 394.69, 1025.13 393.51 C 1027.90 392.33, 1029.49 391.74, 1031.78 390.77 C 1034.07 389.80, 1035.28 389.32, 1036.58 388.65 C 1037.88 387.97, 1038.16 387.69, 1038.29 387.39 C 1038.43 387.09, 1038.12 387.01, 1037.27 387.16 C 1036.42 387.31, 1035.59 387.45, 1034.06 388.15 C 1032.53 388.85, 1031.37 389.46, 1029.61 390.67 C 1027.86 391.88, 1026.85 392.83, 1025.28 394.20 C 1023.72 395.57, 1022.85 396.27, 1021.79 397.52 C 1020.73 398.77, 1020.26 399.41, 1019.99 400.45 C 1019.72 401.50, 1019.84 402.10, 1020.44 402.74 C 1021.03 403.37, 1021.67 403.58, 1022.95 403.64 C 1024.24 403.70, 1025.16 403.56, 1026.88 403.04 C 1028.59 402.52, 1029.60 402.02, 1031.53 401.04 C 1033.45 400.06, 1034.53 399.37, 1036.49 398.14 C 1038.46 396.92, 1039.55 396.22, 1041.36 394.92 C 1043.17 393.63, 1044.26 392.78, 1045.53 391.66 C 1046.79 390.55, 1047.29 389.94, 1047.68 389.33 C 1048.08 388.72, 1047.91 388.53, 1047.50 388.60 C 1047.09 388.67, 1046.50 388.94, 1045.64 389.66 C 1044.77 390.39, 1043.88 391.08, 1043.19 392.23 C 1042.49 393.39, 1042.27 394.32, 1042.14 395.45 C 1042.01 396.59, 1042.11 397.13, 1042.54 397.90 C 1042.97 398.66, 1043.26 399.03, 1044.29 399.28 C 1045.31 399.52, 1046.14 399.48, 1047.66 399.12 C 1049.18 398.76, 1050.07 398.30, 1051.87 397.47 C 1053.68 396.65, 1054.67 396.11, 1056.70 395.02 C 1058.72 393.93, 1060.12 393.15, 1062.01 392.02 C 1063.90 390.89, 1064.90 390.19, 1066.17 389.37 C 1067.44 388.56, 1067.93 388.18, 1068.35 387.95 C 1068.76 387.72, 1068.70 387.77, 1068.24 388.22 C 1067.79 388.67, 1067.05 389.18, 1066.06 390.19 C 1065.07 391.20, 1064.34 392.03, 1063.30 393.27 C 1062.25 394.52, 1061.57 395.31, 1060.85 396.42 C 1060.13 397.53, 1059.81 398.12, 1059.69 398.82 C 1059.58 399.53, 1059.73 399.75, 1060.26 399.92 C 1060.79 400.09, 1061.26 400.11, 1062.34 399.66 C 1063.42 399.21, 1064.19 398.69, 1065.64 397.69 C 1067.09 396.68, 1067.96 395.87, 1069.59 394.63 C 1071.23 393.38, 1072.19 392.61, 1073.82 391.46 C 1075.45 390.32, 1076.32 389.69, 1077.75 388.89 C 1079.17 388.10, 1079.76 387.85, 1080.94 387.49 C 1082.12 387.13, 1082.72 387.06, 1083.64 387.09 C 1084.55 387.12, 1084.83 387.31, 1085.52 387.64 C 1086.20 387.97, 1086.44 388.27, 1087.06 388.73 C 1087.68 389.19, 1087.97 389.48, 1088.62 389.94 C 1089.27 390.40, 1089.56 390.69, 1090.30 391.04 C 1091.05 391.40, 1091.48 391.55, 1092.36 391.70 C 1093.24 391.85, 1093.71 391.89, 1094.71 391.80 C 1095.70 391.72, 1096.24 391.58, 1097.33 391.26 C 1098.41 390.94, 1099.07 390.66, 1100.14 390.18 C 1101.22 389.70, 1101.79 389.40, 1102.70 388.86 C 1103.62 388.32, 1104.08 388.03, 1104.72 387.49 C 1105.36 386.95, 1105.69 386.66, 1105.90 386.16 C 1106.10 385.66, 1106.10 385.29, 1105.76 385.00 C 1105.41 384.71, 1104.96 384.56, 1104.16 384.73 C 1103.35 384.89, 1102.76 385.21, 1101.75 385.83 C 1100.74 386.46, 1100.23 386.93, 1099.11 387.86 C 1098.00 388.78, 1097.28 389.34, 1096.16 390.45 C 1095.05 391.55, 1094.45 392.21, 1093.53 393.38 C 1092.62 394.55, 1092.13 395.16, 1091.60 396.30 C 1091.08 397.44, 1090.85 398.12, 1090.90 399.07 C 1090.95 400.02, 1091.17 400.53, 1091.85 401.07 C 1092.53 401.60, 1093.15 401.81, 1094.31 401.76 C 1095.47 401.71, 1096.11 401.50, 1097.65 400.83 C 1099.19 400.15, 1100.14 399.62, 1101.99 398.40 C 1103.84 397.18, 1104.86 396.37, 1106.90 394.73 C 1108.95 393.09, 1110.09 392.09, 1112.21 390.18 C 1114.33 388.27, 1115.47 387.20, 1117.52 385.18 C 1119.58 383.15, 1120.63 382.02, 1122.47 380.06 C 1124.30 378.09, 1125.22 377.06, 1126.71 375.36 C 1128.20 373.65, 1128.95 372.90, 1129.91 371.53 C 1130.87 370.17, 1131.31 369.39, 1131.51 368.53 C 1131.70 367.66, 1131.48 367.21, 1130.89 367.21 C 1130.29 367.22, 1129.70 367.51, 1128.52 368.55 C 1127.34 369.60, 1126.48 370.47, 1124.99 372.44 C 1123.51 374.41, 1122.66 375.85, 1121.09 378.39 C 1119.52 380.93, 1118.60 382.47, 1117.14 385.15 C 1115.68 387.83, 1114.80 389.23, 1113.79 391.79 C 1112.78 394.35, 1112.39 395.68, 1112.10 397.97 C 1111.81 400.27, 1111.65 401.45, 1112.34 403.29 C 1113.04 405.12, 1114.02 405.95, 1115.58 407.15 C 1117.14 408.36, 1118.43 408.79, 1120.14 409.32 C 1121.84 409.84, 1123.26 409.87, 1124.10 409.77 C 1124.95 409.67, 1124.99 409.31, 1124.35 408.83 C 1123.70 408.34, 1122.38 408.01, 1120.87 407.34 C 1119.36 406.67, 1118.18 406.41, 1116.80 405.47 C 1115.42 404.54, 1114.53 404.10, 1113.98 402.66 C 1113.43 401.22, 1113.67 400.28, 1114.04 398.27 C 1114.42 396.27, 1114.83 395.03, 1115.86 392.64 C 1116.88 390.24, 1117.67 388.85, 1119.16 386.28 C 1120.64 383.72, 1121.64 382.22, 1123.28 379.80 C 1124.91 377.37, 1125.94 376.11, 1127.33 374.16 C 1128.72 372.20, 1129.46 371.28, 1130.24 370.00 C 1131.02 368.72, 1131.20 368.16, 1131.24 367.74 C 1131.28 367.33, 1131.02 367.41, 1130.44 367.92 C 1129.85 368.43, 1129.39 369.08, 1128.32 370.28 C 1127.25 371.48, 1126.61 372.28, 1125.11 373.93 C 1123.61 375.57, 1122.66 376.57, 1120.82 378.50 C 1118.98 380.42, 1117.96 381.55, 1115.91 383.53 C 1113.87 385.51, 1112.73 386.53, 1110.61 388.38 C 1108.50 390.22, 1107.34 391.17, 1105.33 392.74 C 1103.31 394.31, 1102.30 395.06, 1100.55 396.22 C 1098.79 397.39, 1097.86 397.85, 1096.55 398.57 C 1095.23 399.29, 1094.78 399.54, 1093.98 399.82 C 1093.19 400.10, 1092.89 400.09, 1092.59 399.97 C 1092.29 399.85, 1092.30 399.73, 1092.48 399.20 C 1092.65 398.68, 1092.89 398.19, 1093.46 397.32 C 1094.04 396.46, 1094.46 395.88, 1095.35 394.87 C 1096.23 393.86, 1096.81 393.26, 1097.90 392.28 C 1098.98 391.29, 1099.69 390.77, 1100.77 389.95 C 1101.86 389.12, 1102.43 388.81, 1103.32 388.16 C 1104.20 387.52, 1104.71 387.24, 1105.21 386.71 C 1105.72 386.18, 1105.86 385.85, 1105.82 385.52 C 1105.79 385.19, 1105.49 385.03, 1105.02 385.07 C 1104.56 385.10, 1104.20 385.34, 1103.51 385.69 C 1102.83 386.05, 1102.46 386.39, 1101.59 386.82 C 1100.72 387.26, 1100.16 387.47, 1099.15 387.89 C 1098.14 388.31, 1097.51 388.58, 1096.56 388.93 C 1095.61 389.27, 1095.20 389.47, 1094.42 389.61 C 1093.65 389.75, 1093.33 389.72, 1092.68 389.64 C 1092.04 389.55, 1091.77 389.47, 1091.20 389.19 C 1090.63 388.90, 1090.44 388.64, 1089.84 388.22 C 1089.23 387.80, 1088.90 387.53, 1088.18 387.08 C 1087.46 386.63, 1087.13 386.33, 1086.24 385.97 C 1085.35 385.61, 1084.88 385.35, 1083.72 385.29 C 1082.56 385.22, 1081.83 385.30, 1080.44 385.64 C 1079.05 385.98, 1078.37 386.24, 1076.77 386.99 C 1075.18 387.74, 1074.22 388.32, 1072.47 389.40 C 1070.71 390.48, 1069.69 391.22, 1067.98 392.39 C 1066.26 393.57, 1065.26 394.22, 1063.88 395.29 C 1062.50 396.37, 1061.84 396.99, 1061.07 397.78 C 1060.31 398.57, 1060.13 398.90, 1060.06 399.25 C 1059.98 399.60, 1060.16 399.76, 1060.70 399.53 C 1061.23 399.29, 1061.77 398.92, 1062.75 398.07 C 1063.74 397.21, 1064.53 396.50, 1065.61 395.24 C 1066.70 393.99, 1067.41 393.10, 1068.18 391.78 C 1068.94 390.46, 1069.41 389.60, 1069.44 388.64 C 1069.48 387.68, 1069.19 387.22, 1068.35 386.99 C 1067.51 386.75, 1066.76 386.92, 1065.24 387.48 C 1063.71 388.03, 1062.70 388.73, 1060.74 389.77 C 1058.78 390.81, 1057.44 391.62, 1055.45 392.69 C 1053.45 393.75, 1052.47 394.27, 1050.76 395.08 C 1049.06 395.88, 1048.19 396.21, 1046.91 396.72 C 1045.64 397.22, 1045.04 397.46, 1044.40 397.59 C 1043.75 397.73, 1043.72 397.70, 1043.69 397.41 C 1043.67 397.11, 1043.82 396.81, 1044.27 396.13 C 1044.72 395.45, 1045.27 394.99, 1045.94 393.99 C 1046.62 392.99, 1047.20 392.17, 1047.63 391.14 C 1048.07 390.12, 1048.23 389.43, 1048.11 388.88 C 1047.98 388.32, 1047.81 388.16, 1047.02 388.35 C 1046.22 388.54, 1045.56 388.93, 1044.15 389.84 C 1042.73 390.75, 1041.74 391.68, 1039.95 392.91 C 1038.16 394.15, 1037.11 394.86, 1035.19 396.02 C 1033.27 397.17, 1032.18 397.78, 1030.35 398.69 C 1028.51 399.60, 1027.54 399.97, 1026.03 400.56 C 1024.51 401.14, 1023.74 401.33, 1022.76 401.61 C 1021.78 401.88, 1021.41 402.05, 1021.12 401.93 C 1020.83 401.82, 1020.87 401.61, 1021.31 401.03 C 1021.75 400.45, 1022.20 400.00, 1023.32 399.03 C 1024.44 398.07, 1025.32 397.40, 1026.91 396.22 C 1028.51 395.04, 1029.59 394.29, 1031.29 393.15 C 1033.00 392.00, 1034.10 391.48, 1035.44 390.51 C 1036.77 389.55, 1037.42 389.04, 1037.98 388.34 C 1038.55 387.64, 1038.67 387.26, 1038.27 386.99 C 1037.87 386.73, 1037.46 386.68, 1035.99 387.01 C 1034.52 387.34, 1033.28 387.75, 1030.93 388.64 C 1028.58 389.52, 1027.02 390.25, 1024.25 391.42 C 1021.47 392.59, 1019.88 393.36, 1017.03 394.49 C 1014.19 395.61, 1012.57 396.17, 1010.02 397.03 C 1007.48 397.88, 1006.24 398.29, 1004.31 398.76 C 1002.38 399.23, 1001.54 399.36, 1000.36 399.38 C 999.17 399.39, 998.80 399.32, 998.39 398.85 C 997.99 398.37, 998.08 397.89, 998.31 397.00 C 998.54 396.11, 998.99 395.55, 999.56 394.41 C 1000.12 393.27, 1000.70 392.45, 1001.15 391.30 C 1001.59 390.14, 1001.81 389.33, 1001.80 388.61 C 1001.78 387.89, 1001.71 387.66, 1001.08 387.70 C 1000.45 387.75, 999.94 388.05, 998.65 388.82 C 997.36 389.59, 996.34 390.37, 994.62 391.56 C 992.89 392.75, 991.87 393.56, 990.02 394.78 C 988.17 396.01, 987.11 396.67, 985.37 397.68 C 983.62 398.70, 982.65 399.18, 981.29 399.88 C 979.93 400.58, 979.37 400.87, 978.57 401.19 C 977.77 401.51, 977.44 401.64, 977.29 401.47 C 977.14 401.31, 977.24 401.06, 977.83 400.37 C 978.42 399.68, 978.95 399.13, 980.24 398.01 C 981.53 396.89, 982.44 396.08, 984.28 394.77 C 986.12 393.45, 987.40 392.63, 989.45 391.42 C 991.50 390.22, 992.74 389.62, 994.53 388.73 C 996.31 387.84, 997.21 387.52, 998.38 386.95 C 999.56 386.38, 1000.08 386.15, 1000.41 385.88 C 1000.73 385.61, 1000.56 385.46, 1000.00 385.60 C 999.43 385.75, 998.97 385.99, 997.60 386.61 C 996.23 387.22, 995.32 387.68, 993.15 388.70 C 990.98 389.72, 989.60 390.36, 986.77 391.69 C 983.94 393.01, 982.31 393.80, 979.00 395.33 C 975.70 396.85, 973.84 397.70, 970.24 399.32 C 966.64 400.95, 964.63 401.78, 961.02 403.45 C 957.42 405.12, 955.61 405.95, 952.23 407.66 C 948.85 409.37, 947.14 410.29, 944.11 412.01 C 941.07 413.72, 939.48 414.53, 937.07 416.24 C 934.66 417.95, 933.68 418.84, 932.06 420.55 C 930.44 422.25, 929.83 423.14, 928.98 424.77 C 928.13 426.41, 927.82 427.26, 927.81 428.70 C 927.80 430.14, 928.14 430.95, 928.93 431.97 C 929.73 432.99, 930.45 433.48, 931.78 433.80 C 933.11 434.13, 933.92 434.03, 935.58 433.60 C 937.25 433.18, 938.22 432.82, 940.12 431.67 C 942.01 430.52, 943.12 429.74, 945.06 427.86 C 947.00 425.99, 947.94 424.71, 949.81 422.29 C 951.69 419.86, 952.64 418.49, 954.43 415.72 C 956.22 412.94, 957.10 411.35, 958.75 408.41 C 960.41 405.47, 961.17 403.82, 962.69 401.01 C 964.21 398.19, 965.22 396.78, 966.35 394.33 C 967.47 391.87, 967.95 390.51, 968.31 388.73 C 968.67 386.94, 968.60 386.18, 968.13 385.39 C 967.66 384.60, 967.21 384.43, 965.95 384.77 C 964.68 385.11, 963.69 385.78, 961.82 387.09 C 959.95 388.39, 958.71 389.58, 956.61 391.29 C 954.51 393.00, 953.33 394.06, 951.32 395.62 C 949.31 397.18, 948.18 397.92, 946.56 399.11 C 944.94 400.30, 944.18 400.81, 943.23 401.58 C 942.28 402.35, 941.97 402.73, 941.82 402.93 C 941.66 403.14, 941.87 403.05, 942.47 402.62 C 943.06 402.19, 943.57 401.75, 944.81 400.78 C 946.04 399.81, 946.94 399.02, 948.64 397.78 C 950.33 396.53, 951.50 395.82, 953.29 394.56 C 955.08 393.30, 956.19 392.65, 957.60 391.48 C 959.00 390.31, 959.69 389.63, 960.32 388.70 C 960.94 387.77, 961.08 387.28, 960.74 386.84 C 960.40 386.41, 959.97 386.29, 958.61 386.52 C 957.24 386.75, 956.18 387.10, 953.89 387.99 C 951.60 388.88, 950.15 389.66, 947.16 390.97 C 944.17 392.28, 942.37 393.12, 938.96 394.54 C 935.54 395.95, 933.53 396.70, 930.11 398.04 C 926.68 399.37, 924.88 400.16, 921.83 401.21 C 918.77 402.27, 917.24 402.67, 914.83 403.32 C 912.41 403.96, 911.33 404.17, 909.77 404.44 C 908.20 404.71, 907.73 404.81, 907.00 404.67 C 906.28 404.53, 906.21 404.28, 906.13 403.73 C 906.06 403.18, 906.26 402.78, 906.64 401.92 C 907.02 401.05, 907.32 400.41, 908.02 399.40 C 908.73 398.40, 909.21 397.86, 910.16 396.89 C 911.11 395.92, 911.78 395.38, 912.76 394.57 C 913.75 393.75, 914.29 393.45, 915.07 392.82 C 915.86 392.20, 916.44 391.89, 916.68 391.44 C 916.92 390.99, 916.80 390.66, 916.27 390.57" style="stroke: currentColor; fill: currentColor;"/></svg>